<svg height="512pt" viewBox="0 0 512 512" width="512pt" xmlns="http://www.w3.org/2000/svg"><path d="m256 0c-139.488281 0-256 116.140625-256 256 0 139.488281 116.140625 256 256 256 139.488281 0 256-116.140625 256-256 0-139.488281-116.140625-256-256-256zm159.101562 96.902344c85.644532 85.644531 89.054688 217.871094 10.261719 307.246094l-13.148437-13.148438h8.785156v-240h-75.222656l-18.75-60h-142.054688l-17.324218 55.4375-59.796876-59.796875c89.375-78.792969 221.601563-75.382813 307.25 10.261719zm-221.644531 117.769531c-7.863281 11.859375-12.457031 26.0625-12.457031 41.328125 0 41.355469 33.644531 75 75 75 15.265625 0 29.46875-4.59375 41.328125-12.457031l42.457031 42.457031h-218.785156v-180h38.785156zm103.144531 60.71875-59.992187-59.992187c5.875-2.816407 12.453125-4.398438 19.390625-4.398438 24.8125 0 45 20.1875 45 45 0 6.9375-1.582031 13.515625-4.398438 19.390625zm-21.210937 21.210937c-5.875 2.816407-12.453125 4.398438-19.390625 4.398438-24.8125 0-45-20.1875-45-45 0-6.9375 1.582031-13.515625 4.398438-19.390625zm43.152344.726563c7.863281-11.859375 12.457031-26.0625 12.457031-41.328125 0-41.355469-33.644531-75-75-75-15.265625 0-29.46875 4.59375-41.328125 12.457031l-23.074219-23.074219 15.429688-49.382812h97.945312l18.75 60h67.277344v180h-8.785156zm-221.644531 117.769531c-85.644532-85.644531-89.054688-217.871094-10.261719-307.246094l43.148437 43.148438h-38.785156v240h278.789062l34.359376 34.359375c-89.375 78.792969-221.601563 75.382813-307.25-10.261719zm0 0"/></svg>